<svg width="367" height="200" viewBox="0 0 367 200" fill="none" xmlns="http://www.w3.org/2000/svg">
<path d="M81.6539 187.166V151.865H13.2424C11.6187 151.916 10.0018 151.633 8.49147 151.035C6.98111 150.437 5.60928 149.536 4.46058 148.387C3.31436 147.219 2.41558 145.831 1.81799 144.307C1.2204 142.783 0.93628 141.155 0.982616 139.518C0.935661 136.933 1.79031 134.412 3.3998 132.389L84.0536 15.877C85.186 14.2342 86.7079 12.8979 88.4832 11.9875C90.2585 11.077 92.2319 10.6209 94.2267 10.66C95.8409 10.6337 97.4382 10.9914 98.8871 11.7034C100.321 12.3694 101.646 13.2488 102.817 14.3119C103.985 15.3524 104.875 16.6672 105.408 18.1376C106.044 19.6796 106.34 21.3402 106.278 23.0068V127.172H120.746C124.016 127.134 127.17 128.383 129.528 130.65C130.728 131.785 131.671 133.164 132.295 134.693C132.918 136.223 133.208 137.868 133.145 139.518C133.192 141.167 132.894 142.807 132.272 144.334C131.649 145.861 130.714 147.242 129.528 148.387C127.17 150.653 124.016 151.902 120.746 151.865H106.295V187.166C106.277 190.447 104.961 193.588 102.634 195.901C100.308 198.215 97.1599 199.513 93.8789 199.513C92.2541 199.552 90.6395 199.246 89.141 198.617C87.6425 197.988 86.294 197.049 85.184 195.861C84.0424 194.723 83.1415 193.366 82.535 191.873C81.9286 190.379 81.6289 188.778 81.6539 187.166ZM81.6539 127.172V62.4816L36.8404 127.346L81.6539 127.172Z" fill="#2989E5"/>
<path d="M314.66 187.166V151.865H246.231C244.607 151.916 242.99 151.633 241.48 151.035C239.97 150.437 238.598 149.536 237.449 148.387C236.303 147.219 235.404 145.831 234.806 144.307C234.209 142.783 233.925 141.154 233.971 139.518C233.924 136.933 234.779 134.412 236.388 132.388L317.042 15.8769C318.18 14.2994 319.653 12.993 321.355 12.0511C323.145 11.0634 325.172 10.5824 327.215 10.6599C328.829 10.6337 330.427 10.9913 331.876 11.7033C333.322 12.3662 334.659 13.2458 335.84 14.3118C337.008 15.3523 337.899 16.6671 338.432 18.1376C339.067 19.6795 339.364 21.3401 339.301 23.0067V127.172H353.769C357.039 127.134 360.193 128.383 362.551 130.65C363.751 131.785 364.694 133.164 365.318 134.693C365.942 136.223 366.232 137.868 366.168 139.518C366.215 141.167 365.918 142.807 365.295 144.334C364.672 145.861 363.738 147.242 362.551 148.387C360.193 150.653 357.039 151.902 353.769 151.865H339.318V187.166C339.3 190.447 337.984 193.588 335.657 195.901C333.331 198.215 330.183 199.513 326.902 199.513C325.277 199.552 323.663 199.246 322.164 198.617C320.666 197.987 319.317 197.048 318.207 195.861C317.062 194.724 316.158 193.368 315.549 191.875C314.939 190.381 314.637 188.78 314.66 187.166ZM314.66 127.172V62.4815L269.846 127.345L314.66 127.172Z" fill="#2989E5"/>
<path d="M130.084 181.949C109.756 157.604 130.258 114.303 146.622 90.1313C146.969 90.2449 147.339 90.2726 147.7 90.2121C148.06 90.1515 148.4 90.0044 148.691 89.7835C149.213 87.6967 155.926 76.7412 158.169 75.0022C165.229 69.9591 176.602 70.4808 184.706 72.0459C189.724 72.8717 194.428 75.0342 198.322 78.3063C202.216 75.0342 206.919 72.8717 211.938 72.0459C220.216 70.4808 231.415 69.9591 238.475 75.0022C240.718 76.5673 247.431 87.5228 247.952 89.7835C248.571 90.1633 249.313 90.288 250.022 90.1313C266.386 114.129 285.532 158.995 263.116 183.688C242.44 206.817 143.005 204.556 130.084 181.949Z" fill="#3C464C"/>
<path d="M175.854 198.818L175.68 196.905C174.481 189.949 169.298 183.341 157.578 183.341C158.447 159.517 175.333 140.562 196.183 140.562C217.033 140.562 235.484 157.256 236.18 181.428C233.258 179.167 217.051 188.731 218.251 197.6L218.598 198.818L225.833 197.948C211.614 199.902 197.23 200.368 182.915 199.339L175.854 198.818Z" fill="#4F5F66"/>
<path d="M211.086 16.7463C213.155 13.7901 228.145 -2.03464 231.415 0.226035C235.901 3.3562 238.371 21.0938 238.371 26.1368C238.305 27.0781 238.423 28.0231 238.718 28.9192C238.749 29.7979 238.866 30.6715 239.066 31.5277C239.379 32.433 239.612 33.364 239.762 34.31L238.214 37.0924C228.145 34.1361 206.947 34.1361 211.086 16.7463Z" fill="#3C464C"/>
<path d="M229.867 9.79038C229.872 8.56872 230.233 7.37505 230.907 6.35571C231.58 5.33638 232.536 4.53568 233.658 4.05176H233.832L234.18 4.92125C235.077 7.42555 235.826 9.98045 236.423 12.5727L237.119 15.8768L236.093 16.0507C234.452 15.9981 232.894 15.3205 231.737 14.1568C230.579 12.993 229.911 11.431 229.867 9.79038Z" fill="#93A5B2"/>
<path d="M173.855 16.7463C171.785 13.7901 156.795 -2.03464 153.526 0.226035C149.039 3.3562 146.57 21.0938 146.57 26.1368C146.636 27.0781 146.518 28.0231 146.222 28.9192C146.191 29.7979 146.075 30.6715 145.874 31.5277C145.562 32.433 145.329 33.364 145.179 34.31L146.726 37.0924C156.726 34.1361 177.993 34.1361 173.855 16.7463Z" fill="#3C464C"/>
<path d="M147.839 15.8768L148.535 12.5727C149.052 9.96014 149.803 7.39933 150.778 4.92125L151.126 4.05176H151.3C152.416 4.53268 153.363 5.33573 154.02 6.35808C154.676 7.38042 155.013 8.57553 154.987 9.79038C154.994 10.61 154.838 11.4229 154.529 12.1822C154.22 12.9414 153.764 13.632 153.187 14.214C152.61 14.796 151.923 15.258 151.166 15.5732C150.41 15.8884 149.598 16.0507 148.778 16.0507L147.839 15.8768Z" fill="#93A5B2"/>
<path d="M194.879 28.5713C205.541 28.5713 215.963 31.733 224.829 37.6565C233.694 43.58 240.603 51.9993 244.684 61.8498C248.764 71.7003 249.831 82.5394 247.751 92.9966C245.671 103.454 240.537 113.059 232.998 120.599C225.459 128.138 215.853 133.272 205.396 135.352C194.939 137.432 184.099 136.365 174.249 132.284C164.399 128.204 155.979 121.295 150.056 112.43C144.132 103.564 140.97 93.1417 140.97 82.4796C140.97 68.1823 146.65 54.4705 156.76 44.3607C166.87 34.2509 180.581 28.5713 194.879 28.5713Z" fill="#4F5F66"/>
<path d="M144.553 114.999C144.328 114.644 144.239 114.219 144.303 113.803C144.367 113.388 144.579 113.009 144.901 112.738L161.438 101.087C161.783 100.839 162.211 100.736 162.631 100.801C163.051 100.866 163.428 101.094 163.682 101.435C163.907 101.79 163.996 102.215 163.932 102.63C163.868 103.046 163.655 103.424 163.334 103.695L146.796 115.347C146.626 115.472 146.433 115.562 146.228 115.612C146.023 115.663 145.811 115.672 145.602 115.639C145.394 115.607 145.193 115.534 145.013 115.424C144.833 115.314 144.677 115.169 144.553 114.999Z" fill="#93A5B2"/>
<path d="M137.84 107.173C137.743 106.992 137.684 106.792 137.666 106.587C137.649 106.382 137.673 106.175 137.738 105.98C137.803 105.785 137.908 105.605 138.045 105.451C138.182 105.297 138.349 105.173 138.536 105.087L157.839 95.0005C158.019 94.9035 158.217 94.8445 158.421 94.8272C158.625 94.8098 158.83 94.8345 159.024 94.8997C159.218 94.9649 159.397 95.0692 159.549 95.2062C159.701 95.3432 159.823 95.5099 159.908 95.6961C160.005 95.8776 160.064 96.077 160.082 96.2822C160.1 96.4874 160.075 96.694 160.01 96.8894C159.945 97.0848 159.84 97.2648 159.703 97.4184C159.566 97.572 159.399 97.6961 159.212 97.7829L139.91 107.869C139.537 108.007 139.129 108.013 138.752 107.886C138.376 107.76 138.054 107.508 137.84 107.173Z" fill="#93A5B2"/>
<path d="M240.197 113.781L223.659 102.13C223.35 101.866 223.151 101.495 223.104 101.091C223.056 100.687 223.162 100.279 223.401 99.9502C223.641 99.6211 223.995 99.3942 224.394 99.3148C224.793 99.2354 225.207 99.3093 225.554 99.5218L242.092 111.173C242.401 111.437 242.6 111.809 242.647 112.213C242.695 112.617 242.589 113.024 242.35 113.353C242.11 113.682 241.756 113.909 241.357 113.988C240.958 114.068 240.544 113.994 240.197 113.781Z" fill="#93A5B2"/>
<path d="M246.926 106.304L227.624 96.2178C227.285 96.0034 227.031 95.6786 226.904 95.2984C226.777 94.9181 226.786 94.5057 226.928 94.131C227.142 93.7962 227.464 93.5446 227.84 93.418C228.217 93.2915 228.625 93.2976 228.998 93.4354L248.3 103.522C248.639 103.736 248.893 104.061 249.02 104.441C249.147 104.821 249.138 105.234 248.996 105.608C248.806 105.968 248.486 106.241 248.1 106.37C247.715 106.5 247.295 106.476 246.926 106.304Z" fill="#93A5B2"/>
<path d="M150.239 53.9604C153.747 53.9639 157.174 55.0071 160.089 56.9582C163.004 58.9093 165.274 61.6808 166.614 64.9222C167.954 68.1636 168.303 71.7295 167.616 75.1691C166.93 78.6087 165.239 81.7676 162.758 84.2465C160.277 86.7254 157.116 88.4131 153.676 89.0961C150.236 89.7791 146.67 89.4268 143.43 88.0838C140.19 86.7407 137.421 84.4673 135.472 81.5507C133.524 78.6341 132.484 75.2055 132.484 71.698C132.493 66.9935 134.368 62.4846 137.696 59.1597C141.024 55.8347 145.535 53.965 150.239 53.9604Z" fill="white"/>
<path d="M236.927 53.9604C240.435 53.9639 243.862 55.0071 246.777 56.9582C249.692 58.9093 251.962 61.6808 253.302 64.9222C254.642 68.1636 254.991 71.7295 254.305 75.1691C253.618 78.6087 251.927 81.7676 249.446 84.2465C246.965 86.7254 243.804 88.4131 240.364 89.0961C236.924 89.7791 233.358 89.4268 230.118 88.0838C226.878 86.7407 224.109 84.4673 222.16 81.5507C220.212 78.6341 219.172 75.2055 219.172 71.698C219.182 66.9935 221.056 62.4846 224.384 59.1597C227.712 55.8347 232.223 53.965 236.927 53.9604Z" fill="white"/>
<path d="M213.329 52.9171C212.942 52.8411 212.6 52.6167 212.376 52.2918C212.151 51.9669 212.063 51.5673 212.129 51.1782L213.677 42.1355C213.72 41.9304 213.804 41.736 213.923 41.5635C214.042 41.391 214.194 41.2438 214.37 41.1306C214.547 41.0173 214.744 40.9402 214.95 40.9038C215.157 40.8673 215.368 40.8722 215.573 40.9182C215.96 40.9942 216.302 41.2186 216.526 41.5435C216.751 41.8684 216.839 42.268 216.773 42.6571L215.225 51.6998C215.105 52.0947 214.848 52.4339 214.501 52.6569C214.154 52.8799 213.738 52.9721 213.329 52.9171Z" fill="#93A5B2"/>
<path d="M219.52 54.1344C219.133 54.0584 218.791 53.834 218.566 53.5091C218.342 53.1842 218.254 52.7845 218.32 52.3954L219.868 43.3527C219.911 43.1477 219.995 42.9533 220.114 42.7808C220.233 42.6082 220.385 42.4611 220.561 42.3479C220.738 42.2346 220.935 42.1575 221.141 42.1211C221.347 42.0846 221.559 42.0895 221.763 42.1355C222.151 42.2115 222.493 42.4359 222.717 42.7608C222.941 43.0857 223.03 43.4853 222.963 43.8744L221.416 52.9171C221.265 53.2914 221.001 53.6096 220.662 53.8276C220.322 54.0457 219.923 54.1529 219.52 54.1344Z" fill="#93A5B2"/>
<path d="M173.681 51.178L171.437 42.3092C171.344 41.8965 171.417 41.4635 171.642 41.105C171.867 40.7465 172.225 40.4917 172.637 40.3964C173.026 40.3094 173.433 40.3674 173.782 40.5596C174.131 40.7517 174.398 41.0647 174.533 41.4398L176.776 50.3085C176.87 50.7213 176.796 51.1543 176.571 51.5128C176.346 51.8713 175.988 52.1261 175.576 52.2214C175.187 52.3084 174.78 52.2504 174.431 52.0582C174.082 51.8661 173.815 51.5531 173.681 51.178Z" fill="#93A5B2"/>
<path d="M167.472 52.7432L165.229 43.8744C165.136 43.4617 165.209 43.0287 165.434 42.6702C165.659 42.3117 166.017 42.0568 166.429 41.9615C166.818 41.8746 167.225 41.9326 167.574 42.1247C167.923 42.3169 168.19 42.6299 168.325 43.0049L170.637 51.8737C170.731 52.2864 170.657 52.7195 170.433 53.078C170.208 53.4365 169.85 53.6913 169.438 53.7866C169.243 53.8821 169.028 53.9301 168.811 53.9266C168.594 53.923 168.381 53.8681 168.189 53.7663C167.997 53.6645 167.832 53.5187 167.708 53.3409C167.583 53.163 167.503 52.9582 167.472 52.7432Z" fill="#93A5B2"/>
<path d="M121.946 82.306C121.936 68.1247 126.131 54.2588 134.002 42.462C141.872 30.6652 153.064 21.4674 166.162 16.0317C179.26 10.596 193.676 9.16669 207.587 11.9245C221.498 14.6822 234.278 21.5033 244.312 31.5249C254.345 41.5465 261.182 54.3185 263.957 68.2257C266.731 82.1329 265.319 96.5506 259.9 109.655C254.48 122.76 245.295 133.963 233.508 141.848C221.721 149.733 207.86 153.945 193.679 153.952C174.666 153.961 156.429 146.419 142.977 132.983C129.525 119.547 121.96 101.318 121.946 82.306ZM246.718 82.306C246.725 71.8075 243.618 61.5429 237.79 52.8104C231.963 44.0779 223.676 37.2699 213.979 33.2475C204.281 29.2252 193.609 28.1692 183.311 30.2131C173.014 32.257 163.554 37.3091 156.128 44.7302C148.702 52.1513 143.644 61.608 141.593 71.9042C139.542 82.2005 140.591 92.8736 144.607 102.574C148.623 112.274 155.426 120.565 164.154 126.398C172.883 132.231 183.146 135.345 193.644 135.345C207.716 135.34 221.211 129.753 231.168 119.809C241.125 109.866 246.73 96.3777 246.753 82.306H246.718Z" fill="#2989E5"/>
<path d="M235.727 192.209L214.86 151.691C214.152 150.321 213.721 148.825 213.591 147.288C213.461 145.751 213.635 144.204 214.104 142.734C214.572 141.265 215.325 139.902 216.32 138.724C217.315 137.545 218.533 136.574 219.903 135.867C221.273 135.159 222.769 134.727 224.306 134.598C225.843 134.468 227.39 134.642 228.859 135.111C230.329 135.579 231.692 136.332 232.87 137.327C234.049 138.322 235.019 139.539 235.727 140.91L256.595 181.428C258.025 184.195 258.297 187.417 257.351 190.385C256.405 193.352 254.319 195.823 251.552 197.252C248.785 198.682 245.563 198.954 242.595 198.008C239.628 197.063 237.157 194.977 235.727 192.209Z" fill="#2989E5"/>
<path d="M183.68 83.5231C183.391 83.403 183.132 83.222 182.919 82.9925C182.707 82.763 182.547 82.4903 182.449 82.1932C182.352 81.8961 182.32 81.5814 182.355 81.2707C182.39 80.9601 182.492 80.6606 182.654 80.3929C182.768 80.1038 182.944 79.8431 183.17 79.629C183.395 79.4148 183.665 79.2525 183.959 79.1531C184.254 79.0538 184.567 79.0199 184.876 79.0539C185.185 79.0878 185.483 79.1887 185.749 79.3495C190.966 81.7841 198.496 82.1319 201.956 79.0018C202.42 78.6075 203.018 78.4058 203.626 78.4382C204.234 78.4705 204.806 78.7344 205.226 79.1756C205.618 79.647 205.819 80.2492 205.786 80.8618C205.754 81.4743 205.492 82.0522 205.052 82.4797C199.539 87.3489 189.888 86.4794 183.68 83.5231Z" fill="#93A5B2"/>
<path d="M191.61 93.6092V83.697C191.661 83.0935 191.937 82.5313 192.383 82.1217C192.829 81.712 193.412 81.4846 194.018 81.4846C194.624 81.4846 195.207 81.712 195.653 82.1217C196.099 82.5313 196.375 83.0935 196.426 83.697V93.6092C196.418 93.9167 196.348 94.2195 196.221 94.4999C196.095 94.7804 195.914 95.033 195.689 95.2431C195.464 95.4533 195.2 95.6169 194.912 95.7245C194.624 95.832 194.317 95.8814 194.009 95.8698C193.697 95.9089 193.379 95.8785 193.08 95.7807C192.781 95.6829 192.507 95.5203 192.277 95.3043C192.048 95.0883 191.869 94.8244 191.754 94.5314C191.638 94.2384 191.589 93.9234 191.61 93.6092Z" fill="#93A5B2"/>
<path d="M207.469 103.174C202.963 102.002 198.739 99.9315 195.053 97.0873L194.183 96.3917L193.488 97.0873C189.909 100.294 185.485 102.406 180.741 103.174C180.128 103.232 179.515 103.072 179.009 102.722C178.503 102.372 178.137 101.855 177.976 101.261C177.919 100.964 177.923 100.659 177.989 100.364C178.055 100.069 178.18 99.7901 178.358 99.5456C178.536 99.3011 178.762 99.0956 179.022 98.942C179.282 98.7883 179.571 98.6897 179.871 98.6523C184.619 97.7497 188.963 95.3771 192.288 91.8703C192.694 91.4701 193.233 91.2317 193.803 91.1997C194.372 91.1677 194.934 91.3443 195.383 91.6964C199.118 95.044 203.613 97.4314 208.478 98.6523C209.073 98.7972 209.589 99.1694 209.914 99.6893C210.239 100.209 210.347 100.836 210.217 101.435C210.184 101.746 210.082 102.046 209.917 102.312C209.752 102.578 209.529 102.804 209.265 102.971C209 103.138 208.701 103.244 208.39 103.279C208.079 103.314 207.764 103.278 207.469 103.174Z" fill="#93A5B2"/>
<path d="M230.719 70.3068C231.994 70.2965 233.243 70.665 234.308 71.3657C235.373 72.0664 236.206 73.0676 236.701 74.2424C237.196 75.4172 237.331 76.7125 237.088 77.964C236.846 79.2155 236.237 80.3669 235.34 81.2719C234.442 82.177 233.295 82.795 232.046 83.0475C230.796 83.3001 229.5 83.1757 228.321 82.6903C227.143 82.2049 226.135 81.3803 225.425 80.3211C224.716 79.2618 224.337 78.0158 224.337 76.741C224.316 75.8947 224.466 75.0528 224.779 74.266C225.091 73.4792 225.56 72.7638 226.156 72.1627C226.752 71.5616 227.464 71.0874 228.248 70.7684C229.032 70.4495 229.873 70.2925 230.719 70.3068Z" fill="#3C464C"/>
<path d="M158.169 70.3069C159.444 70.2965 160.693 70.6651 161.758 71.3658C162.823 72.0664 163.655 73.0677 164.15 74.2424C164.645 75.4172 164.78 76.7125 164.538 77.964C164.296 79.2156 163.687 80.3669 162.789 81.272C161.892 82.1771 160.745 82.7951 159.496 83.0476C158.246 83.3001 156.95 83.1758 155.771 82.6904C154.592 82.2049 153.584 81.3803 152.875 80.3211C152.166 79.2619 151.787 78.0159 151.787 76.7411C151.78 75.8986 151.94 75.0631 152.258 74.2827C152.575 73.5024 153.044 72.7927 153.638 72.1945C154.231 71.5964 154.937 71.1216 155.715 70.7976C156.492 70.4736 157.326 70.3068 158.169 70.3069Z" fill="#3C464C"/>
<path d="M146.118 138.301C146.813 137.605 160.934 129.084 162.151 129.258C172.585 131.345 161.456 151.865 153.195 150.474C149.718 149.952 144.066 142.474 143.892 139.518C144.048 139.344 145.77 138.649 146.118 138.301Z" fill="#3C464C"/>
<path d="M241.24 144.735C240.371 145.605 236.753 153.256 235.901 154.474C233.31 158.125 227.119 158.473 225.902 162.473C222.807 172.907 247.274 170.472 252.265 160.56C251.743 157.778 242.44 144.561 241.24 144.735C241.414 144.735 241.414 144.561 241.24 144.735Z" fill="#3C464C"/>
<path d="M100.783 192.209C96.7328 191.462 92.8749 189.906 89.4391 187.635C86.0033 185.365 83.0599 182.426 80.7844 178.993C75.9674 171.515 74.7501 161.951 78.0194 151.343C78.6331 149.35 80.012 147.682 81.8538 146.704C83.6955 145.726 85.8499 145.518 87.8446 146.126C88.8387 146.404 89.7662 146.88 90.5716 147.526C91.3769 148.171 92.0433 148.973 92.5307 149.883C93.018 150.792 93.3163 151.791 93.4075 152.819C93.4988 153.847 93.3811 154.883 93.0616 155.865C88.9228 169.255 96.5395 175.341 103.913 176.906C108.198 177.783 112.655 177.105 116.486 174.993C118.46 173.794 120.147 172.176 121.427 170.252C122.707 168.329 123.549 166.148 123.894 163.864C124.307 161.84 125.49 160.056 127.193 158.888C128.896 157.72 130.987 157.26 133.023 157.604C134.029 157.781 134.989 158.157 135.848 158.71C136.706 159.263 137.446 159.981 138.024 160.823C138.602 161.664 139.007 162.613 139.214 163.613C139.421 164.613 139.427 165.644 139.231 166.646C138.467 171.143 136.73 175.418 134.141 179.173C131.551 182.928 128.173 186.071 124.241 188.384C117.173 192.541 108.806 193.905 100.783 192.209Z" fill="#3C464C"/>
</svg>
