<svg width="25" height="25" viewBox="0 0 25 25" fill="none" xmlns="http://www.w3.org/2000/svg">
<mask id="mask0_8_963" style="mask-type:alpha" maskUnits="userSpaceOnUse" x="0" y="0" width="25" height="25">
<rect x="0.5" y="0.5" width="20" height="20" fill="#D9D9D9"/>
</mask>
<g mask="url(#mask0_8_963)">
<path d="M23.7608 21.0769L17.2454 14.7961C16.7267 15.2089 16.1303 15.532 15.456 15.7653C14.7817 15.9987 14.0842 16.1153 13.3633 16.1153C11.5903 16.1153 10.0898 15.5236 8.86167 14.34C7.63358 13.1564 7.01953 11.7103 7.01953 10.0016C7.01953 8.29284 7.63342 6.84616 8.8612 5.66154C10.089 4.47694 11.5892 3.88464 13.3617 3.88464C15.1343 3.88464 16.635 4.47658 17.8638 5.66044C19.0927 6.84431 19.7071 8.29083 19.7071 9.99999C19.7071 10.7141 19.5828 11.3961 19.3341 12.0461C19.0854 12.6961 18.7536 13.2615 18.3386 13.7423L24.854 20.0231L23.7608 21.0769ZM13.3633 14.6154C14.6999 14.6154 15.832 14.1683 16.7597 13.274C17.6873 12.3798 18.1511 11.2885 18.1511 9.99999C18.1511 8.71153 17.6873 7.62018 16.7597 6.72594C15.832 5.83171 14.6999 5.38459 13.3633 5.38459C12.0267 5.38459 10.8946 5.83171 9.96697 6.72594C9.03935 7.62018 8.57554 8.71153 8.57554 9.99999C8.57554 11.2885 9.03935 12.3798 9.96697 13.274C10.8946 14.1683 12.0267 14.6154 13.3633 14.6154Z" fill="#1C1B1F"/>
</g>
</svg>
