<svg width="20" height="21" viewBox="0 0 20 21" fill="none" xmlns="http://www.w3.org/2000/svg">
<mask id="mask0_1_173" style="mask-type:alpha" maskUnits="userSpaceOnUse" x="0" y="0" width="20" height="21">
<rect y="0.5" width="20" height="20" fill="#D9D9D9"/>
</mask>
<g mask="url(#mask0_1_173)">
<path d="M10.0019 13.4807C10.9462 13.4807 11.7481 13.1502 12.4079 12.4893C13.0676 11.8283 13.3974 11.0257 13.3974 10.0814C13.3974 9.13718 13.067 8.3352 12.406 7.67548C11.745 7.01576 10.9424 6.6859 9.99813 6.6859C9.05389 6.6859 8.25191 7.01638 7.59219 7.67735C6.93247 8.33834 6.6026 9.14096 6.6026 10.0852C6.6026 11.0294 6.93309 11.8314 7.59406 12.4911C8.25505 13.1509 9.05767 13.4807 10.0019 13.4807ZM10 12.3333C9.37502 12.3333 8.84377 12.1146 8.40627 11.6771C7.96877 11.2396 7.75002 10.7083 7.75002 10.0833C7.75002 9.45831 7.96877 8.92706 8.40627 8.48956C8.84377 8.05206 9.37502 7.83331 10 7.83331C10.625 7.83331 11.1563 8.05206 11.5938 8.48956C12.0313 8.92706 12.25 9.45831 12.25 10.0833C12.25 10.7083 12.0313 11.2396 11.5938 11.6771C11.1563 12.1146 10.625 12.3333 10 12.3333ZM10.0012 15.9166C8.08482 15.9166 6.33872 15.388 4.76285 14.3309C3.18701 13.2737 2.02676 11.8579 1.2821 10.0833C2.02676 8.30874 3.18663 6.89288 4.76173 5.83573C6.33681 4.77858 8.08253 4.25 9.99888 4.25C11.9152 4.25 13.6613 4.77858 15.2372 5.83573C16.813 6.89288 17.9733 8.30874 18.7179 10.0833C17.9733 11.8579 16.8134 13.2737 15.2383 14.3309C13.6632 15.388 11.9175 15.9166 10.0012 15.9166ZM10 14.6666C11.5695 14.6666 13.0104 14.2535 14.3229 13.4271C15.6354 12.6007 16.6389 11.4861 17.3334 10.0833C16.6389 8.68054 15.6354 7.56595 14.3229 6.73956C13.0104 5.91317 11.5695 5.49998 10 5.49998C8.43058 5.49998 6.9896 5.91317 5.6771 6.73956C4.3646 7.56595 3.36113 8.68054 2.66669 10.0833C3.36113 11.4861 4.3646 12.6007 5.6771 13.4271C6.9896 14.2535 8.43058 14.6666 10 14.6666Z" fill="#1C1B1F"/>
</g>
</svg>
