<svg width="40" height="40" viewBox="0 0 40 40" fill="none" xmlns="http://www.w3.org/2000/svg">
<mask id="mask0_22_781" style="mask-type:alpha" maskUnits="userSpaceOnUse" x="0" y="0" width="40" height="40">
<rect width="40" height="40" fill="#D9D9D9"/>
</mask>
<g mask="url(#mask0_22_781)">
<path d="M19.9915 28.3846C21.8683 28.3846 23.4482 27.743 24.7313 26.4599C26.0144 25.1768 26.656 23.5969 26.656 21.7201C26.656 19.8433 26.0144 18.2662 24.7313 16.9888C23.4482 15.7114 21.8683 15.0727 19.9915 15.0727C18.1147 15.0727 16.5376 15.7114 15.2602 16.9888C13.9828 18.2662 13.3441 19.8433 13.3441 21.7201C13.3441 23.5969 13.9828 25.1768 15.2602 26.4599C16.5376 27.743 18.1147 28.3846 19.9915 28.3846ZM19.9915 26.2906C18.6909 26.2906 17.6069 25.854 16.7393 24.9808C15.8718 24.1076 15.438 23.0207 15.438 21.7201C15.438 20.4195 15.8718 19.3355 16.7393 18.468C17.6069 17.6004 18.6909 17.1667 19.9915 17.1667C21.2921 17.1667 22.379 17.6004 23.2522 18.468C24.1254 19.3355 24.562 20.4195 24.562 21.7201C24.562 23.0207 24.1254 24.1076 23.2522 24.9808C22.379 25.854 21.2921 26.2906 19.9915 26.2906ZM6.77358 34.1666C6.05725 34.1666 5.44369 33.9112 4.93291 33.4005C4.42214 32.8897 4.16675 32.2761 4.16675 31.5598V11.9146C4.16675 11.208 4.42214 10.5969 4.93291 10.0813C5.44369 9.56558 6.05725 9.30775 6.77358 9.30775H12.2864L15.3526 5.83337H24.6475L27.7137 9.30775H33.2265C33.9331 9.30775 34.5442 9.56558 35.0598 10.0813C35.5755 10.5969 35.8333 11.208 35.8333 11.9146V31.5598C35.8333 32.2761 35.5755 32.8897 35.0598 33.4005C34.5442 33.9112 33.9331 34.1666 33.2265 34.1666H6.77358ZM6.77358 32.0727H33.2265C33.3761 32.0727 33.499 32.0246 33.5951 31.9284C33.6913 31.8323 33.7394 31.7094 33.7394 31.5598V11.9146C33.7394 11.7721 33.6913 11.651 33.5951 11.5513C33.499 11.4516 33.3761 11.4017 33.2265 11.4017H26.7565L23.6987 7.92733H16.3013L13.2436 11.4017H6.77358C6.624 11.4017 6.50112 11.4516 6.40496 11.5513C6.30879 11.651 6.26071 11.7721 6.26071 11.9146V31.5598C6.26071 31.7094 6.30879 31.8323 6.40496 31.9284C6.50112 32.0246 6.624 32.0727 6.77358 32.0727Z" fill="black" fill-opacity="0.5"/>
</g>
</svg>
