<svg width="30" height="30" viewBox="0 0 30 30" fill="none" xmlns="http://www.w3.org/2000/svg">
<path d="M3.11961 29.6667C2.40825 29.6667 1.79594 29.41 1.28269 28.8968C0.769442 28.3835 0.512817 27.7712 0.512817 27.0598V3.94026C0.512817 3.2289 0.769442 2.61659 1.28269 2.10334C1.79594 1.59006 2.40825 1.33342 3.11961 1.33342H18.6046V3.42738H3.11961C2.97003 3.42738 2.84715 3.47547 2.75098 3.57163C2.65484 3.6678 2.60678 3.79067 2.60678 3.94026V27.0598C2.60678 27.2094 2.65484 27.3323 2.75098 27.4285C2.84715 27.5246 2.97003 27.5727 3.11961 27.5727H26.2392C26.3888 27.5727 26.5117 27.5246 26.6078 27.4285C26.704 27.3323 26.7521 27.2094 26.7521 27.0598V11.6026H28.846V27.0598C28.846 27.7712 28.5894 28.3835 28.0761 28.8968C27.5629 29.41 26.9506 29.6667 26.2392 29.6667H3.11961ZM24.0598 9.49788V6.13676H20.7094V4.0428H24.0598V0.692383H26.1537V4.0428H29.5042V6.13676H26.1537V9.49788H24.0598ZM5.92948 23.3718H23.5575L18.2007 16.233L13.3803 22.4637L9.9679 18.1219L5.92948 23.3718Z" fill="#2989E5"/>
</svg>
