<svg width="32" height="32" viewBox="0 0 32 32" fill="none" xmlns="http://www.w3.org/2000/svg">
<path d="M14.8483 23.7499H16.9422V16.9593H23.7499V14.8654H16.9422V7.91667H14.8483V14.8654H7.91667V16.9593H14.8483V23.7499ZM15.8435 31.6666C13.6514 31.6666 11.5958 31.251 9.67683 30.4199C7.75783 29.5888 6.08101 28.4563 4.64638 27.0223C3.21174 25.5883 2.07868 23.9115 1.24721 21.992C0.415736 20.0724 0 18.0159 0 15.8222C0 13.6357 0.415556 11.5804 1.24667 9.65646C2.07778 7.73251 3.21033 6.05786 4.64433 4.6325C6.07833 3.20711 7.7551 2.07868 9.67462 1.24721C11.5942 0.415738 13.6507 0 15.8444 0C18.0309 0 20.0862 0.415557 22.0101 1.24667C23.9341 2.07778 25.6087 3.20569 27.0341 4.63042C28.4595 6.05517 29.5879 7.73057 30.4194 9.65663C31.2508 11.5827 31.6666 13.6382 31.6666 15.8231C31.6666 18.0152 31.251 20.0708 30.4199 21.9898C29.5888 23.9088 28.4609 25.5839 27.0362 27.0151C25.6114 28.4463 23.936 29.5794 22.01 30.4143C20.0839 31.2491 18.0284 31.6666 15.8435 31.6666ZM15.8472 29.5726C19.6656 29.5726 22.9077 28.2368 25.5737 25.5651C28.2396 22.8935 29.5726 19.6449 29.5726 15.8194C29.5726 12.001 28.2414 8.75886 25.5789 6.09292C22.9164 3.42695 19.6679 2.09396 15.8333 2.09396C12.017 2.09396 8.7731 3.42521 6.10146 6.08771C3.42979 8.75018 2.09396 11.9987 2.09396 15.8333C2.09396 19.6495 3.42979 22.8935 6.10146 25.5651C8.7731 28.2368 12.0217 29.5726 15.8472 29.5726Z" fill="#2989E5"/>
</svg>
