<svg width="32" height="32" viewBox="0 0 32 32" fill="none" xmlns="http://www.w3.org/2000/svg">
<path d="M9.87612 23.5983L16 17.4744L22.124 23.5983L23.5983 22.124L17.4744 16L23.5983 9.87612L22.124 8.40179L16 14.5257L9.87612 8.40179L8.40179 9.87612L14.5257 16L8.40179 22.124L9.87612 23.5983ZM16.0028 31.8333C13.8243 31.8333 11.7734 31.4178 9.85008 30.5867C7.92675 29.7556 6.24776 28.623 4.81312 27.189C3.37848 25.755 2.24543 24.0768 1.41396 22.1543C0.582484 20.2318 0.166748 18.1813 0.166748 16.0028C0.166748 13.8129 0.582304 11.7546 1.41341 9.82767C2.24453 7.90075 3.37708 6.22461 4.81108 4.79925C6.24508 3.37386 7.92332 2.24543 9.84579 1.41396C11.7683 0.582486 13.8188 0.166748 15.9972 0.166748C18.1871 0.166748 20.2455 0.582305 22.1724 1.41342C24.0993 2.24453 25.7755 3.37244 27.2008 4.79716C28.6262 6.22192 29.7547 7.89732 30.5861 9.82337C31.4176 11.7494 31.8333 13.8074 31.8333 15.9972C31.8333 18.1758 31.4178 20.2267 30.5867 22.15C29.7556 24.0733 28.6276 25.7523 27.2029 27.187C25.7782 28.6216 24.1028 29.7547 22.1767 30.5861C20.2507 31.4176 18.1927 31.8333 16.0028 31.8333ZM16 29.7394C19.8277 29.7394 23.0745 28.4035 25.7404 25.7319C28.4064 23.0602 29.7394 19.8163 29.7394 16C29.7394 12.1724 28.4064 8.92561 25.7404 6.25967C23.0745 3.59369 19.8277 2.26071 16 2.26071C12.1838 2.26071 8.93985 3.59369 6.26821 6.25967C3.59654 8.92561 2.26071 12.1724 2.26071 16C2.26071 19.8163 3.59654 23.0602 6.26821 25.7319C8.93985 28.4035 12.1838 29.7394 16 29.7394Z" fill="#2989E5"/>
</svg>
