<svg width="31" height="29" viewBox="0 0 31 29" fill="none" xmlns="http://www.w3.org/2000/svg">
<path d="M9.8934 20.9401L15.4093 16.2627L20.9583 20.9401L22.8282 19.3525L17.3123 14.6751L22.8282 9.98709L20.9583 8.39955L15.4093 13.0769L9.8934 8.39955L7.99042 9.98709L13.5394 14.6751L7.99042 19.3525L9.8934 20.9401ZM5.63442 28.1665C4.78149 28.1665 4.05093 27.9112 3.44274 27.4004C2.8346 26.8896 2.53052 26.2761 2.53052 25.5597V3.39097H0.525635V1.29701H9.16067V0.0256348H21.6579V1.29701H30.293V3.39097H28.2881V25.5597C28.2881 26.2761 27.984 26.8896 27.3759 27.4004C26.7677 27.9112 26.0371 28.1665 25.1842 28.1665H5.63442ZM25.7948 3.39097H5.02379V25.5597C5.02379 25.6879 5.0874 25.8055 5.2146 25.9123C5.34181 26.0192 5.48175 26.0726 5.63442 26.0726H25.1842C25.3369 26.0726 25.4768 26.0192 25.604 25.9123C25.7312 25.8055 25.7948 25.6879 25.7948 25.5597V3.39097Z" fill="#2989E5"/>
</svg>
