<svg width="41" height="40" viewBox="0 0 41 40" fill="none" xmlns="http://www.w3.org/2000/svg">
<g id="delete_forever">
<mask id="mask0_20_400" style="mask-type:alpha" maskUnits="userSpaceOnUse" x="0" y="0" width="41" height="40">
<rect id="Bounding box" x="0.5" width="40" height="40" fill="#D9D9D9"/>
</mask>
<g mask="url(#mask0_20_400)">
<path id="delete_forever_2" d="M18.8934 26.9401L24.4093 22.2627L29.9583 26.9401L31.8282 25.3525L26.3123 20.6751L31.8282 15.9871L29.9583 14.3996L24.4093 19.0769L18.8934 14.3996L16.9904 15.9871L22.5394 20.6751L16.9904 25.3525L18.8934 26.9401ZM14.6344 34.1665C13.7815 34.1665 13.0509 33.9112 12.4427 33.4004C11.8346 32.8896 11.5305 32.2761 11.5305 31.5597V9.39097H9.52563V7.29701H18.1607V6.02563H30.6579V7.29701H39.293V9.39097H37.2881V31.5597C37.2881 32.2761 36.984 32.8896 36.3759 33.4004C35.7677 33.9112 35.0371 34.1665 34.1842 34.1665H14.6344ZM34.7948 9.39097H14.0238V31.5597C14.0238 31.6879 14.0874 31.8055 14.2146 31.9123C14.3418 32.0192 14.4817 32.0726 14.6344 32.0726H34.1842C34.3369 32.0726 34.4768 32.0192 34.604 31.9123C34.7312 31.8055 34.7948 31.6879 34.7948 31.5597V9.39097Z" fill="#2989E5"/>
</g>
</g>
</svg>
