<svg width="20" height="21" viewBox="0 0 20 21" fill="none" xmlns="http://www.w3.org/2000/svg">
<mask id="mask0_3_488" style="mask-type:alpha" maskUnits="userSpaceOnUse" x="0" y="0" width="20" height="21">
<rect y="0.5" width="20" height="20" fill="#D9D9D9"/>
</mask>
<g mask="url(#mask0_3_488)">
<path d="M13.1442 11.3109L12.2084 10.375C12.3334 9.68481 12.1365 9.06436 11.6178 8.51362C11.0991 7.96287 10.4626 7.75 9.70835 7.875L8.77248 6.93912C8.96051 6.85472 9.15335 6.79142 9.351 6.74922C9.54864 6.70702 9.76498 6.68591 10 6.68591C10.9455 6.68591 11.7481 7.01577 12.4079 7.6755C13.0676 8.33522 13.3974 9.13783 13.3974 10.0833C13.3974 10.3184 13.3763 10.5374 13.3341 10.7404C13.2919 10.9434 13.2286 11.1335 13.1442 11.3109ZM15.7949 13.9038L14.875 13.0417C15.4028 12.6389 15.8716 12.1979 16.2813 11.7187C16.691 11.2396 17.0417 10.6944 17.3334 10.0833C16.6389 8.68055 15.6424 7.56597 14.3438 6.73958C13.0452 5.91319 11.5972 5.49999 10 5.49999C9.59724 5.49999 9.20141 5.52777 8.81252 5.58333C8.42363 5.63888 8.04169 5.72222 7.66669 5.83333L6.69556 4.8622C7.22227 4.6528 7.76019 4.49842 8.30933 4.39906C8.85847 4.2997 9.42204 4.25002 10 4.25002C11.953 4.25002 13.7142 4.78847 15.2836 5.86539C16.8531 6.94232 17.9979 8.3483 18.7179 10.0833C18.4092 10.828 18.0104 11.523 17.5216 12.1682C17.0328 12.8135 16.4573 13.3921 15.7949 13.9038ZM16.468 18.7243L13.0962 15.3782C12.6688 15.5363 12.1953 15.6656 11.6755 15.766C11.1557 15.8664 10.5972 15.9166 10 15.9166C8.0417 15.9166 6.28049 15.3782 4.7164 14.3013C3.1523 13.2243 2.00754 11.8184 1.2821 10.0833C1.5898 9.34722 1.98724 8.66052 2.47442 8.02322C2.9616 7.38595 3.49792 6.83334 4.0834 6.36539L1.77569 4.03206L2.6539 3.15387L17.3461 17.8461L16.468 18.7243ZM4.96158 7.24356C4.52142 7.59399 4.09326 8.0152 3.67713 8.5072C3.26099 8.99919 2.92417 9.52456 2.66669 10.0833C3.36113 11.4861 4.35766 12.6007 5.65627 13.4271C6.95488 14.2535 8.4028 14.6667 10 14.6667C10.3793 14.6667 10.757 14.6346 11.1331 14.5705C11.5091 14.5064 11.828 14.4402 12.0898 14.3718L11.0353 13.2916C10.8932 13.3493 10.7287 13.3953 10.5417 13.4295C10.3547 13.4636 10.1742 13.4807 10 13.4807C9.05452 13.4807 8.25191 13.1509 7.59219 12.4912C6.93247 11.8314 6.6026 11.0288 6.6026 10.0833C6.6026 9.91452 6.6197 9.73798 6.6539 9.55368C6.68809 9.36938 6.73403 9.20084 6.79171 9.04806L4.96158 7.24356Z" fill="#1C1B1F"/>
</g>
</svg>
